inDegrees=yes
name=ik_S53_A01_T01
DataType=double
version=3
OpenSimVersion=4.3-2021-08-27-4bc7ad9
endheader
time	pelvis_tilt	pelvis_list	pelvis_rotation	pelvis_tx	pelvis_ty	pelvis_tz	hip_flexion_r	hip_adduction_r	hip_rotation_r	knee_angle_r	knee_angle_r_beta	ankle_angle_r	subtalar_angle_r	mtp_angle_r	hip_flexion_l	hip_adduction_l	hip_rotation_l	knee_angle_l	knee_angle_l_beta	ankle_angle_l	subtalar_angle_l	mtp_angle_l	lumbar_extension	lumbar_bending	lumbar_rotation	arm_flex_r	arm_add_r	arm_rot_r	elbow_flex_r	pro_sup_r	wrist_flex_r	wrist_dev_r	arm_flex_l	arm_add_l	arm_rot_l	elbow_flex_l	pro_sup_l	wrist_flex_l	wrist_dev_l
24.16666666666658	1.660018818418572	-3.06335630334725	101.9617874620793	0	0.9399999999999999	0	0.9753662170794766	-3.856623421065242	-12.6968721513714	2.219642294235086	0.03874006625092301	0	0	0	6.609542511663973	-4.068842039212047	-5.325526304622856	5.863252369764684	0.1023330587277538	0	0	0	0	0	0	39.59262263324817	-39.59262263324816	4.879997763892499	83.39190908711547	85.12000250554725	0	0	39.59262263324817	-39.59262263324816	4.879997763892499	83.39190908711547	85.12000250552512	0	0
24.18333333333324	1.669960232130187	-3.056759512192542	101.9599811096138	0	0.9399999999999999	0	0.9354786791462592	-4.034102320509827	-12.75377959094447	3.7837834478906	0.06603947934815427	0	0	0	5.790007746276276	-3.672032213567622	-5.161790096325792	4.921514535578761	0.08589663283060898	0	0	0	0	0	0	39.59402385678356	-39.59402385678356	4.88006009703893	83.39274461761971	85.11994017240357	0	0	39.59402385678356	-39.59402385678356	4.88006009703893	83.39274461761971	85.11994017238143	0	0
24.19999999999991	1.337185316519982	-3.504953790190661	101.8248919038908	0	0.9399999999999999	0	1.277768129273582	-4.606881188806143	-12.65549031721586	5.541019324625164	0.09670903113134162	0	0	0	5.711070850525226	-3.075431401947472	-5.031977767000237	4.394449293559643	0.07669760898455462	0	0	0	0	0	0	39.63001809431393	-39.63001809431393	4.881453328513921	83.41141751027736	85.11854694098921	0	0	39.63001809431393	-39.63001809431393	4.881453328513921	83.41141751027736	85.11854694096732	0	0
24.21666666666657	1.165272080945739	-3.639149032550112	101.7387401865607	0	0.9399999999999999	0	1.366250511432525	-4.955151115386577	-12.60533792560583	7.377412035813828	0.1287601303012091	0	0	0	5.459535755421976	-2.602260008166354	-4.70767374531299	4.009751632678364	0.06998336817745571	0	0	0	0	0	0	39.66159820468753	-39.66159820468753	4.88265897019205	83.42757604113142	85.1173412993634	0	0	39.66159820468753	-39.66159820468753	4.88265897019205	83.42757604113142	85.11734129934175	0	0
24.23333333333324	0.7396341904408165	-3.862028045364285	101.5085145020578	0	0.9399999999999999	0	1.428994352724733	-5.598009820359414	-12.64172307970824	9.130937583323627	0.1593649246230914	0	0	0	5.247640184045867	-1.889876945377701	-4.59452857788313	3.708731053027002	0.06472956794627759	0	0	0	0	0	0	39.66354084172534	-39.66354084172534	4.882744714459832	83.42872536416695	85.1172555550994	0	0	39.66354084172534	-39.66354084172534	4.882744714459832	83.42872536416695	85.11725555507778	0	0
24.2499999999999	0.7419689942225877	-3.856214660908503	101.509769206068	0	0.9399999999999999	0	1.31011796918307	-5.759998211652431	-13.01696973677908	10.65183603226124	0.1859096101455275	0	0	0	4.896992738391155	-1.671347336445895	-4.30076965081609	3.450867672079789	0.06022900292842432	0	0	0	0	0	0	39.66532719344236	-39.66532719344235	4.882823556319455	83.42978216641102	85.11717671324331	0	0	39.66532719344236	-39.66532719344235	4.882823556319455	83.42978216641102	85.11717671322168	0	0
24.26666666666657	0.3354966895051084	-3.941241209844278	101.255068247227	0	0.9399999999999999	0	8.981590393518923	-8.875623404846078	-12.72779456828309	19.59330729352507	0.3419677236270315	0	0	0	4.498676575069836	-1.154732493558077	-4.283704277377058	2.992872374746472	0.05223547703130753	0	0	0	0	0	0	39.765488363103	-39.765488363103	4.886547853597974	83.47969565648374	85.11345241612575	0	0	39.765488363103	-39.765488363103	4.886547853597974	83.47969565648374	85.11345241610472	0	0
24.28333333333324	-0.009126104192841308	-3.650249337644885	100.8255016614983	0	0.9399999999999999	0	9.675971712405477	-9.234879582483238	-12.34047109788461	20.90091475769847	0.3647897792005111	0	0	0	4.131031910274774	-0.8211194356079408	-4.706450609868426	3.144283669556429	0.05487810265044907	0	0	0	0	0	0	39.76655230275277	-39.76655230275276	4.886593869423959	83.48031244006529	85.11340640030186	0	0	39.76655230275277	-39.76655230275276	4.886593869423959	83.48031244006529	85.11340640028084	0	0
24.2999999999999	0.0807408176032046	-3.449724088453345	100.6303658115425	0	0.9399999999999999	0	10.43118127318439	-9.267341353262395	-12.74521614994699	21.89927445934038	0.3822144431133907	0	0	0	3.528405109794974	-0.7941667338829583	-4.64450358657411	2.85903570775561	0.04989958653242177	0	0	0	0	0	0	39.76726119142704	-39.76726119142703	4.886624744244485	83.48072627979181	85.1133755254827	0	0	39.76726119142704	-39.76726119142703	4.886624744244485	83.48072627979181	85.11337552546168	0	0
24.31666666666657	0.06616788742359384	-3.511233436757412	100.6171888901608	0	0.9399999999999999	0	10.50797723696295	-9.298007156239651	-12.73152877645183	21.91096329147444	0.382418451719843	0	0	0	3.096872875971986	-0.6711879012564431	-4.458898397711951	2.449097450041888	0.04274481420542828	0	0	0	0	0	0	39.76783190444228	-39.76783190444227	4.886649507040091	83.48105819425616	85.1133507626882	0	0	39.76783190444228	-39.76783190444227	4.886649507040091	83.48105819425616	85.11335076266718	0	0
24.33333333333323	0.07042542152335957	-3.477293279872837	100.6264413902852	0	0.9399999999999999	0	11.4086903365527	-9.109898582135008	-13.29007510886823	22.43732208611833	0.3916051457332075	0	0	0	2.553745709785765	-0.6773811667403065	-4.422624460473414	2.27561058707916	0.03971689723777248	0	0	0	0	0	0	39.7691571540232	-39.76915715402319	4.886707147868342	83.48183079895111	85.11329312186248	0	0	39.7691571540232	-39.76915715402319	4.886707147868342	83.48183079895111	85.11329312184147	0	0
24.3499999999999	0.381545746660252	-3.314920717628312	100.4572706248944	0	0.9399999999999999	0	11.45187821266657	-8.366553686931057	-13.0730616419021	21.40830352703495	0.3736453838130747	0	0	0	1.896743352861666	-1.040058126540153	-4.61379178004715	1.870871503816339	0.03265286762333277	0	0	0	0	0	0	39.77074177476091	-39.7707417747609	4.886775733861643	83.48275010667783	85.11322453587218	0	0	39.77074177476091	-39.7707417747609	4.886775733861643	83.48275010667783	85.11322453585116	0	0
24.36666666666656	0.681462795907935	-3.306123990226362	100.3679400150967	0	0.9399999999999999	0	13.19126131087813	-7.925181704172924	-13.72672598880735	21.3626667901753	0.3728488724950077	0	0	0	1.376110758547515	-1.409863700710164	-4.849341785002984	1.613980097013788	0.0281692667545481	0	0	0	0	0	0	39.78174143451056	-39.78174143451056	4.887184077757781	83.48822276790504	85.11281619199369	0	0	39.78174143451056	-39.78174143451056	4.887184077757781	83.48822276790504	85.11281619197274	0	0
24.38333333333323	1.003836227901563	-3.342265053718362	100.259437185192	0	0.9399999999999999	0	14.0582081145318	-7.381246377071394	-13.86221217091859	19.87393933954639	0.3468656768167118	0	0	0	0.9027525907804195	-1.816305775704778	-5.087367924523384	1.405100436259771	0.02452362893394171	0	0	0	0	0	0	39.78232154757585	-39.78232154757584	4.887216394795451	83.48865599188102	85.11278387495746	0	0	39.78232154757585	-39.78232154757584	4.887216394795451	83.48865599188102	85.11278387493654	0	0
24.3999999999999	1.304774943281943	-3.37723547240812	100.1199973748398	0	0.9399999999999999	0	14.84482781084636	-6.853323106825677	-13.96216679956909	17.88171385595017	0.3120947826858215	0	0	0	0.9852210750107496	-2.106620933625698	-5.235159517638446	1.412654617370762	0.02465547426662049	0	0	0	0	0	0	39.78618445796661	-39.78618445796661	4.887370376695732	83.49071978428408	85.11262989306391	0	0	39.78618445796661	-39.78618445796661	4.887370376695732	83.49071978428408	85.11262989304301	0	0
24.41666666666656	1.576816192815026	-3.370417201536187	100.027130611937	0	0.9399999999999999	0	15.62846569256045	-6.509659788880035	-13.82174317663665	18.51342231597543	0.3231201752259651	0	0	0	0.9835196082537977	-2.48353770193951	-5.363376085125299	1.716609446095017	0.02996048680519416	0	0	0	0	0	0	39.78735934001207	-39.78735934001206	4.887420959655608	83.49139778032796	85.11257931010623	0	0	39.78735934001207	-39.78735934001206	4.887420959655608	83.49139778032796	85.11257931008532	0	0
24.43333333333323	1.755166586687817	-3.457735246131088	100.0191926738424	0	0.9399999999999999	0	16.54057522679048	-6.109079418093495	-13.92011995135527	16.4036574136425	0.2862978312372391	0	0	0	0.6649940087410617	-2.67335683047903	-5.266518517453525	1.633417521266048	0.02850851380585704	0	0	0	0	0	0	39.78750023888519	-39.78750023888519	4.887434194524269	83.49157523630883	85.11256607523819	0	0	39.78750023888519	-39.78750023888519	4.887434194524269	83.49157523630883	85.11256607521732	0	0
24.44999999999989	1.870628316956265	-3.403302425835257	100.0902707408558	0	0.9399999999999999	0	17.29207358972677	-5.663327389815731	-13.86236154750027	14.08256593585998	0.2457871427099532	0	0	0	0.1146765824477388	-2.82415733009955	-5.096674721722263	1.491493433061058	0.0260314711787891	0	0	0	0	0	0	39.783778554835	-39.783778554835	4.887308097078828	83.48988539153922	85.11269217267829	0	0	39.783778554835	-39.783778554835	4.887308097078828	83.48988539153922	85.11269217265733	0	0
